# xmcd
#
# Track frame offsets:
# 150
# 8456
# 24548
# 37716
# 48617
# 67166
# 77607
# 88641
# 100194
# 111719
# 125898
# 136587
#
# Disc length: 1997 seconds
#
#
# Revision: 0
# Processed by: cddbd v1.4PL0 Copyright (c) Steve Scherf et al.
# Submitted via: FreeRIP 2.00 
#
DISCID=9807cb0c
DTITLE=Fausto Papetti - Fausto Papetti Vol. 2
DYEAR=2001
DGENRE=Instrumental Pop
TTITLE0=Hello Dolly
TTITLE1=Pequeña Flor
TTITLE2=Love Story
TTITLE3=La Sombra de tu Sonrisa
TTITLE4=My Way
TTITLE5=Brasil
TTITLE6=El humo ciega tus ojos
TTITLE7=Georgia de mi pensamiento
TTITLE8=Harlem nocturno
TTITLE9=Yesterday
TTITLE10=Blue Moon
TTITLE11=Con su blanca palidez
EXTD=
EXTT0=
EXTT1=
EXTT2=
EXTT3=
EXTT4=
EXTT5=
EXTT6=
EXTT7=
EXTT8=
EXTT9=
EXTT10=
EXTT11=
PLAYORDER=
